<mxfile host="drawio-plugin" modified="2021-10-18T23:28:51.685Z" agent="5.0 (Windows NT 6.2; Win64; x64) AppleWebKit/537.36 (KHTML, like Gecko) Chrome/89.0.4389.114 Safari/537.36" version="14.7.4" etag="Jb7lYnEDr28bxAo_-Ix7" type="embed"><diagram id="48QfPSKIX_U6BVccSqgQ" name="Page-1"><mxGraphModel dx="1288" dy="425" grid="1" gridSize="10" guides="1" tooltips="1" connect="1" arrows="1" fold="1" page="1" pageScale="1" pageWidth="850" pageHeight="1100" math="0" shadow="0"><root><mxCell id="0"/><mxCell id="1" parent="0"/><mxCell id="2" value="layout" style="rounded=0;whiteSpace=wrap;html=1;" vertex="1" parent="1"><mxGeometry x="240" y="40" width="120" height="40" as="geometry"/></mxCell></root></mxGraphModel></diagram></mxfile>